<svg width="141" height="33" viewBox="0 0 141 33" fill="none" xmlns="http://www.w3.org/2000/svg">
  <rect x="0.5" y="0.5" width="140" height="32" rx="7.5" fill="#F0F2F9"/>
  <path fill-rule="evenodd" clip-rule="evenodd"
        d="M30 21.7839C29.5078 22.8033 29.2728 23.2583 28.6389 24.159C27.7559 25.4169 26.5099 26.9835 24.966 26.9968C23.5945 27.0087 23.242 26.1621 21.3802 26.1723C19.5184 26.1824 19.1304 27.0118 17.7589 26.9999C16.215 26.987 15.0354 25.5724 14.1514 24.3137C11.6803 20.7959 11.4221 16.668 12.9461 14.4735C14.0291 12.9131 15.7384 12.0013 17.3449 12.0013C18.9807 12.0013 20.0092 12.84 21.3622 12.84C22.6745 12.84 23.4737 12 25.3654 12C26.7951 12 28.3102 12.7279 29.3898 13.9857C25.8524 15.7983 26.4275 20.5207 30 21.7839Z"
        fill="#334155"/>
  <path fill-rule="evenodd" clip-rule="evenodd"
        d="M24.7799 9.37312C25.5724 8.49787 26.1732 7.26304 25.9547 6C24.6602 6.07615 23.1473 6.78499 22.2636 7.70865C21.4612 8.54676 20.7987 9.79006 21.0565 10.9986C22.4684 11.0366 23.9305 10.3104 24.7799 9.37312Z"
        fill="#1E293B"/>
  <path
    d="M56.3051 20.5897H58.5619L54.4997 9.72976H52.0924L48 20.5897H50.1966L51.0843 18.1083H55.4174L56.3051 20.5897ZM53.2509 12.0733L54.7253 16.1783H51.7764L53.2509 12.0733Z"
    fill="#334155"/>
  <path
    d="M61.7475 23.5V19.8545C62.1086 20.36 62.8608 20.7735 63.8839 20.7735C65.9753 20.7735 67.3745 19.0886 67.3745 16.8063C67.3745 14.57 66.1257 12.8851 63.9592 12.8851C62.8458 12.8851 62.0183 13.3906 61.6873 13.9726V13.0536H59.7464V23.5H61.7475ZM65.4035 16.8217C65.4035 18.1696 64.5911 18.9508 63.568 18.9508C62.5449 18.9508 61.7174 18.1543 61.7174 16.8217C61.7174 15.4891 62.5449 14.7079 63.568 14.7079C64.5911 14.7079 65.4035 15.4891 65.4035 16.8217Z"
    fill="#334155"/>
  <path
    d="M70.9599 23.5V19.8545C71.321 20.36 72.0733 20.7735 73.0964 20.7735C75.1877 20.7735 76.5869 19.0886 76.5869 16.8063C76.5869 14.57 75.3381 12.8851 73.1716 12.8851C72.0582 12.8851 71.2307 13.3906 70.8997 13.9726V13.0536H68.9588V23.5H70.9599ZM74.616 16.8217C74.616 18.1696 73.8035 18.9508 72.7804 18.9508C71.7573 18.9508 70.9298 18.1543 70.9298 16.8217C70.9298 15.4891 71.7573 14.7079 72.7804 14.7079C73.8035 14.7079 74.616 15.4891 74.616 16.8217Z"
    fill="#334155"/>
  <path
    d="M89.2157 12.3184C88.975 11.093 87.982 9.5 85.3942 9.5C83.3781 9.5 81.6779 10.9705 81.6779 12.9004C81.6779 14.5394 82.7763 15.6575 84.4764 16.0098L85.9659 16.3162C86.7934 16.4847 87.2598 16.9748 87.2598 17.6028C87.2598 18.3687 86.6429 18.9354 85.5296 18.9354C84.025 18.9354 83.2878 17.9705 83.1975 16.8982L81.2717 17.419C81.4372 18.9661 82.686 20.8195 85.5145 20.8195C87.997 20.8195 89.3662 19.1346 89.3662 17.465C89.3662 15.9333 88.328 14.6466 86.3872 14.2637L84.8977 13.9726C84.1153 13.8195 83.7392 13.3446 83.7392 12.7473C83.7392 12.0274 84.4012 11.3687 85.4092 11.3687C86.7633 11.3687 87.2448 12.3031 87.3501 12.9004L89.2157 12.3184Z"
    fill="#334155"/>
  <path
    d="M93.5097 10.802H91.7042V11.8589C91.7042 12.5328 91.3431 13.0536 90.5608 13.0536H90.1846V14.8611H91.5237V18.3687C91.5237 19.8239 92.4264 20.6969 93.8708 20.6969C94.4576 20.6969 94.8186 20.5897 94.9992 20.5131V18.8282C94.8939 18.8589 94.6231 18.8895 94.3823 18.8895C93.8106 18.8895 93.5097 18.6751 93.5097 18.0164V14.8611H94.9992V13.0536H93.5097V10.802Z"
    fill="#334155"/>
  <path
    d="M99.9506 18.9661C98.9726 18.9661 98.0699 18.2309 98.0699 16.8217C98.0699 15.3972 98.9726 14.6772 99.9506 14.6772C100.929 14.6772 101.831 15.3972 101.831 16.8217C101.831 18.2462 100.929 18.9661 99.9506 18.9661ZM99.9506 12.8239C97.7389 12.8239 96.0688 14.4934 96.0688 16.8217C96.0688 19.1346 97.7389 20.8195 99.9506 20.8195C102.162 20.8195 103.832 19.1346 103.832 16.8217C103.832 14.4934 102.162 12.8239 99.9506 12.8239Z"
    fill="#334155"/>
  <path
    d="M109.926 13.023C109.775 13.0077 109.625 12.9923 109.459 12.9923C108.827 12.9923 107.804 13.1761 107.353 14.1718V13.0536H105.412V20.5897H107.413V17.1433C107.413 15.5197 108.301 15.0142 109.324 15.0142C109.504 15.0142 109.7 15.0295 109.926 15.0755V13.023Z"
    fill="#334155"/>
  <path
    d="M112.719 15.9639C112.764 15.2746 113.336 14.4781 114.374 14.4781C115.517 14.4781 115.999 15.2133 116.029 15.9639H112.719ZM116.225 17.9245C115.984 18.5985 115.472 19.0733 114.54 19.0733C113.547 19.0733 112.719 18.3534 112.674 17.3578H117.97C117.97 17.3271 118 17.0208 118 16.7298C118 14.3096 116.631 12.8239 114.344 12.8239C112.448 12.8239 110.703 14.3862 110.703 16.791C110.703 19.3337 112.493 20.8195 114.524 20.8195C116.345 20.8195 117.519 19.7319 117.895 18.43L116.225 17.9245Z"
    fill="#334155"/>
  <rect x="0.5" y="0.5" width="140" height="32" rx="7.5" stroke="#E2E8F0"/>
</svg>
