<svg width="20" height="21" viewBox="0 0 20 21" fill="none" xmlns="http://www.w3.org/2000/svg">
  <path
    d="M0 6.75H4.4725V20.5H0V6.75ZM16.655 6.91125C16.6075 6.89625 16.5625 6.88 16.5125 6.86625C16.4525 6.85266 16.392 6.84099 16.3312 6.83125C16.0937 6.78375 15.8338 6.75 15.5288 6.75C12.9213 6.75 11.2675 8.64625 10.7225 9.37875V6.75H6.25V20.5H10.7225V13C10.7225 13 14.1025 8.2925 15.5288 11.75V20.5H20V11.2212C20 9.14375 18.5763 7.4125 16.655 6.91125Z"
    fill="#64748B"/>
  <path
    d="M2.1875 4.875C3.39562 4.875 4.375 3.89562 4.375 2.6875C4.375 1.47938 3.39562 0.5 2.1875 0.5C0.979377 0.5 0 1.47938 0 2.6875C0 3.89562 0.979377 4.875 2.1875 4.875Z"
    fill="#64748B"/>
</svg>
