<svg width="20" height="17" viewBox="0 0 20 17" fill="none" xmlns="http://www.w3.org/2000/svg">
  <path d="M20 2.29875C19.2562 2.625 18.4637 2.84125 17.6375 2.94625C18.4875 2.43875 19.1363 1.64125 19.4413 0.68C18.6488 1.1525 17.7737 1.48625 16.8412 1.6725C16.0887 0.87125 15.0162 0.375 13.8462 0.375C11.5762 0.375 9.74875 2.2175 9.74875 4.47625C9.74875 4.80125 9.77625 5.11375 9.84375 5.41125C6.435 5.245 3.41875 3.61125 1.3925 1.1225C1.03875 1.73625 0.83125 2.43875 0.83125 3.195C0.83125 4.615 1.5625 5.87375 2.6525 6.6025C1.99375 6.59 1.3475 6.39875 0.8 6.0975V6.1425C0.8 8.135 2.22125 9.79 4.085 10.1712C3.75125 10.2625 3.3875 10.3062 3.01 10.3062C2.7475 10.3062 2.4825 10.2912 2.23375 10.2362C2.765 11.86 4.2725 13.0537 6.065 13.0925C4.67 14.1837 2.89875 14.8412 0.98125 14.8412C0.645 14.8412 0.3225 14.8262 0 14.785C1.81625 15.9562 3.96875 16.625 6.29 16.625C13.835 16.625 17.96 10.375 17.96 4.9575C17.96 4.77625 17.9537 4.60125 17.945 4.4275C18.7587 3.85 19.4425 3.12875 20 2.29875Z" fill="#64748B"/>
</svg>
