<svg width="151" height="39" viewBox="0 0 151 39" fill="none" xmlns="http://www.w3.org/2000/svg">
  <path
    d="M0 3.14516C0 1.40814 1.40814 0 3.14516 0H147.194C148.931 0 150.339 1.40814 150.339 3.14516V35.8548C150.339 37.5919 148.931 39 147.194 39H3.14516C1.40814 39 0 37.5919 0 35.8548V3.14516Z"
    fill="#1D293F"/>
  <path
    d="M59.4361 25.1613H61.7006L57.6245 14.4577H55.209L51.1027 25.1613H53.3068L54.1975 22.7156H58.5454L59.4361 25.1613ZM56.3715 16.7675L57.8509 20.8134H54.892L56.3715 16.7675Z"
    fill="white"/>
  <path
    d="M64.897 28.0297V24.4366C65.2593 24.9348 66.0142 25.3424 67.0407 25.3424C69.1392 25.3424 70.5432 23.6818 70.5432 21.4324C70.5432 19.2282 69.2902 17.5676 67.1162 17.5676C65.9991 17.5676 65.1687 18.0658 64.8366 18.6395V17.7337H62.8891V28.0297H64.897ZM68.5655 21.4475C68.5655 22.776 67.7503 23.5459 66.7237 23.5459C65.6971 23.5459 64.8668 22.7609 64.8668 21.4475C64.8668 20.134 65.6971 19.3641 66.7237 19.3641C67.7503 19.3641 68.5655 20.134 68.5655 21.4475Z"
    fill="white"/>
  <path
    d="M74.1408 28.0297V24.4366C74.5031 24.9348 75.258 25.3424 76.2846 25.3424C78.383 25.3424 79.787 23.6818 79.787 21.4324C79.787 19.2282 78.534 17.5676 76.3601 17.5676C75.2429 17.5676 74.4126 18.0658 74.0804 18.6395V17.7337H72.133V28.0297H74.1408ZM77.8093 21.4475C77.8093 22.776 76.9941 23.5459 75.9675 23.5459C74.941 23.5459 74.1106 22.7609 74.1106 21.4475C74.1106 20.134 74.941 19.3641 75.9675 19.3641C76.9941 19.3641 77.8093 20.134 77.8093 21.4475Z"
    fill="white"/>
  <path
    d="M92.4589 17.009C92.2173 15.8013 91.2209 14.2312 88.6243 14.2312C86.6013 14.2312 84.8954 15.6805 84.8954 17.5827C84.8954 19.198 85.9975 20.3001 87.7034 20.6473L89.198 20.9493C90.0283 21.1153 90.4963 21.5984 90.4963 22.2174C90.4963 22.9722 89.8773 23.5308 88.7602 23.5308C87.2505 23.5308 86.5107 22.5797 86.4202 21.5229L84.4878 22.0362C84.6538 23.561 85.9069 25.3877 88.7451 25.3877C91.236 25.3877 92.6098 23.7271 92.6098 22.0815C92.6098 20.5718 91.5682 19.3037 89.6207 18.9263L88.1261 18.6395C87.3411 18.4885 86.9636 18.0205 86.9636 17.4317C86.9636 16.7222 87.6279 16.073 88.6394 16.073C89.9981 16.073 90.4812 16.9939 90.5869 17.5827L92.4589 17.009Z"
    fill="white"/>
  <path
    d="M96.7675 15.5144H94.9559V16.5561C94.9559 17.2204 94.5935 17.7337 93.8085 17.7337H93.4311V19.5151H94.7747V22.9722C94.7747 24.4064 95.6805 25.2669 97.1298 25.2669C97.7186 25.2669 98.0809 25.1613 98.2621 25.0858V23.4251C98.1564 23.4553 97.8846 23.4855 97.6431 23.4855C97.0694 23.4855 96.7675 23.2742 96.7675 22.625V19.5151H98.2621V17.7337H96.7675V15.5144Z"
    fill="white"/>
  <path
    d="M103.23 23.561C102.249 23.561 101.343 22.8364 101.343 21.4475C101.343 20.0435 102.249 19.3339 103.23 19.3339C104.212 19.3339 105.117 20.0435 105.117 21.4475C105.117 22.8515 104.212 23.561 103.23 23.561ZM103.23 17.5072C101.011 17.5072 99.3353 19.1528 99.3353 21.4475C99.3353 23.7271 101.011 25.3877 103.23 25.3877C105.45 25.3877 107.125 23.7271 107.125 21.4475C107.125 19.1528 105.45 17.5072 103.23 17.5072Z"
    fill="white"/>
  <path
    d="M113.239 17.7035C113.088 17.6884 112.937 17.6733 112.771 17.6733C112.137 17.6733 111.111 17.8544 110.658 18.8357V17.7337H108.71V25.1613H110.718V21.7645C110.718 20.1642 111.609 19.666 112.635 19.666C112.817 19.666 113.013 19.6811 113.239 19.7264V17.7035Z"
    fill="white"/>
  <path
    d="M116.042 20.602C116.088 19.9227 116.661 19.1377 117.703 19.1377C118.85 19.1377 119.333 19.8623 119.364 20.602H116.042ZM119.56 22.5344C119.318 23.1987 118.805 23.6667 117.869 23.6667C116.873 23.6667 116.042 22.9571 115.997 21.9758H121.311C121.311 21.9457 121.341 21.6437 121.341 21.3569C121.341 18.9716 119.967 17.5072 117.673 17.5072C115.771 17.5072 114.019 19.0471 114.019 21.4173C114.019 23.9233 115.816 25.3877 117.854 25.3877C119.681 25.3877 120.858 24.3158 121.236 23.0326L119.56 22.5344Z"
    fill="white"/>
  <path fill-rule="evenodd" clip-rule="evenodd"
        d="M34.5969 24.7246C34.1153 25.7933 33.8854 26.2704 33.2651 27.2147C32.401 28.5333 31.1819 30.1758 29.6712 30.1897C28.3292 30.2022 27.9843 29.3146 26.1625 29.3253C24.3407 29.336 23.9611 30.2055 22.6191 30.193C21.1083 30.1795 19.9541 28.6964 19.0891 27.3768C16.6712 23.6887 16.4185 19.3611 17.9098 17.0605C18.9695 15.4246 20.642 14.4687 22.2139 14.4687C23.8146 14.4687 24.821 15.348 26.1449 15.348C27.4289 15.348 28.211 14.4673 30.0619 14.4673C31.461 14.4673 32.9434 15.2304 33.9999 16.5491C30.5385 18.4493 31.1012 23.4003 34.5969 24.7246Z"
        fill="white"/>
  <path fill-rule="evenodd" clip-rule="evenodd"
        d="M29.1192 12.2013C29.8171 11.3204 30.3462 10.0776 30.1538 8.8064C29.0139 8.88304 27.6815 9.59645 26.9033 10.5261C26.1967 11.3696 25.6133 12.6209 25.8403 13.8372C27.0837 13.8755 28.3713 13.1446 29.1192 12.2013Z"
        fill="white"/>
</svg>
